<svg xmlns="http://www.w3.org/2000/svg" viewBox="0 0 375 375">
  <rect width="375" height="375" fill="#6BEFA3" rx="75"/>
  <g transform="translate(62, 4)">
    <path fill="#0e0e10" d="M 161.242188 130.230469 C 148.789062 126.683594 136.402344 136.082031 136.402344 149.039062 L 136.402344 348.4375 C 136.402344 359.570312 146.765625 367.902344 157.605469 365.339844 C 211.058594 352.75 250.964844 304.652344 250.964844 247.40625 C 250.964844 191.984375 213.578125 145.148438 161.242188 130.230469 Z M 114.546875 119.660156 L 114.546875 348.4375 C 114.546875 359.570312 104.183594 367.902344 93.34375 365.339844 C 39.890625 352.757812 -0.015625 304.652344 -0.015625 247.40625 L -0.015625 14.371094 C -0.015625 5.628906 7.964844 -0.949219 16.546875 0.71875 C 72.316406 11.550781 114.546875 60.769531 114.546875 119.660156 Z M 114.546875 119.660156"/>
  </g>
</svg>