<svg xmlns="http://www.w3.org/2000/svg" xmlns:xlink="http://www.w3.org/1999/xlink" width="500" zoomAndPan="magnify" viewBox="0 0 375 374.999991" height="500" preserveAspectRatio="xMidYMid meet" version="1.0"><defs><clipPath id="0241b42dc0"><path d="M 62.09375 4 L 312.59375 4 L 312.59375 370 L 62.09375 370 Z M 62.09375 4 " clip-rule="nonzero"/></clipPath><clipPath id="45e8aa6796"><path d="M 0.09375 0.320312 L 250.59375 0.320312 L 250.59375 365.839844 L 0.09375 365.839844 Z M 0.09375 0.320312 " clip-rule="nonzero"/></clipPath><clipPath id="81da2855ee"><rect x="0" width="251" y="0" height="366"/></clipPath></defs><g clip-path="url(#0241b42dc0)"><g transform="matrix(1, 0, 0, 1, 62, 4)"><g clip-path="url(#81da2855ee)"><g clip-path="url(#45e8aa6796)"><path fill="#0e0e10" d="M 161.242188 130.230469 C 148.789062 126.683594 136.402344 136.082031 136.402344 149.039062 L 136.402344 348.4375 C 136.402344 359.570312 146.765625 367.902344 157.605469 365.339844 C 211.058594 352.75 250.964844 304.652344 250.964844 247.40625 C 250.964844 191.984375 213.578125 145.148438 161.242188 130.230469 Z M 114.546875 119.660156 L 114.546875 348.4375 C 114.546875 359.570312 104.183594 367.902344 93.34375 365.339844 C 39.890625 352.757812 -0.015625 304.652344 -0.015625 247.40625 L -0.015625 14.371094 C -0.015625 5.628906 7.964844 -0.949219 16.546875 0.71875 C 72.316406 11.550781 114.546875 60.769531 114.546875 119.660156 Z M 114.546875 119.660156 " fill-opacity="1" fill-rule="nonzero"/></g></g></g></g></svg>